G04*
G04 #@! TF.GenerationSoftware,Altium Limited,Altium Designer,19.0.15 (446)*
G04*
G04 Layer_Color=16711935*
%FSLAX25Y25*%
%MOIN*%
G70*
G01*
G75*
%ADD25C,0.00787*%
D25*
X104727Y0D02*
X105686Y86D01*
X106620Y318D01*
X107507Y692D01*
X108326Y1198D01*
X109057Y1824D01*
X109683Y2555D01*
X110189Y3374D01*
X110563Y4261D01*
X110795Y5195D01*
X110881Y6154D01*
X110881Y100250D02*
X110881Y100323D01*
X110881Y100397D01*
X110881Y100394D02*
X110881Y100397D01*
X110795Y101356D01*
X110563Y102290D01*
X110189Y103177D01*
X109683Y103996D01*
X109057Y104727D01*
X108326Y105353D01*
X107507Y105859D01*
X106620Y106233D01*
X105686Y106465D01*
X104727Y106551D01*
X104724Y106551D01*
X6299D02*
X6228Y106541D01*
X6228D02*
X6154Y106551D01*
X5195Y106465D01*
X4261Y106233D01*
X3374Y105859D01*
X2555Y105353D01*
X1824Y104727D01*
X1198Y103996D01*
X692Y103177D01*
X318Y102290D01*
X86Y101356D01*
X0Y100397D01*
X0Y100250D01*
X0Y6154D02*
X88Y5181D01*
X328Y4233D01*
X712Y3335D01*
X1233Y2508D01*
X1876Y1772D01*
X2626Y1147D01*
X3465Y646D01*
X4372Y282D01*
X5325Y65D01*
X6300Y0D01*
X110881Y100250D02*
X110881Y100323D01*
X110881Y100397D01*
X110881Y100394D02*
X110881Y100397D01*
X110795Y101356D01*
X110563Y102290D01*
X110189Y103177D01*
X109683Y103996D01*
X109057Y104727D01*
X108326Y105353D01*
X107507Y105859D01*
X106620Y106233D01*
X105686Y106465D01*
X104727Y106551D01*
X104724Y106551D01*
X6299D02*
X6228Y106541D01*
X6228D02*
X6154Y106551D01*
X5195Y106465D01*
X4261Y106233D01*
X3374Y105859D01*
X2555Y105353D01*
X1824Y104727D01*
X1198Y103996D01*
X692Y103177D01*
X318Y102290D01*
X86Y101356D01*
X0Y100397D01*
X0Y100250D01*
Y6154D02*
Y100250D01*
X110881Y6154D02*
X110881Y6154D01*
X110881Y6154D02*
Y100250D01*
X6300Y0D02*
X104581D01*
X110881Y100397D02*
X110881Y100394D01*
X6299Y106551D02*
X104724D01*
X6228Y106541D02*
X6228D01*
X110881Y100397D02*
X110881Y100394D01*
X6299Y106551D02*
X104724D01*
X6228Y106541D02*
X6228D01*
M02*
