G04*
G04 #@! TF.GenerationSoftware,Altium Limited,Altium Designer,19.0.15 (446)*
G04*
G04 Layer_Physical_Order=2*
G04 Layer_Color=16711680*
%FSLAX25Y25*%
%MOIN*%
G70*
G01*
G75*
%ADD25C,0.00787*%
%ADD26C,0.07874*%
%ADD27O,0.09843X0.06299*%
%ADD28R,0.09843X0.06299*%
%ADD29C,0.01968*%
G36*
X104711Y105244D02*
X104724Y105239D01*
X105224Y105288D01*
X105958Y105191D01*
X107173Y104688D01*
X108217Y103887D01*
X109018Y102843D01*
X109522Y101627D01*
X109618Y100894D01*
X109569Y100394D01*
X109574Y100381D01*
X109677Y99882D01*
Y7608D01*
X109177Y7508D01*
X108854Y8288D01*
X108096Y9275D01*
X107109Y10032D01*
X105960Y10508D01*
X104727Y10671D01*
X103494Y10508D01*
X102344Y10032D01*
X101357Y9275D01*
X100600Y8288D01*
X100124Y7139D01*
X99962Y5906D01*
X100124Y4672D01*
X100600Y3523D01*
X101357Y2536D01*
X102344Y1779D01*
X102524Y1704D01*
X102425Y1204D01*
X8602D01*
X8503Y1704D01*
X8683Y1779D01*
X9670Y2536D01*
X10427Y3523D01*
X10903Y4672D01*
X11065Y5906D01*
X10903Y7139D01*
X10427Y8288D01*
X9670Y9275D01*
X8683Y10032D01*
X7534Y10508D01*
X6300Y10671D01*
X5067Y10508D01*
X3918Y10032D01*
X2931Y9275D01*
X2173Y8288D01*
X1697Y7139D01*
X1204Y7209D01*
Y100250D01*
X1190Y100323D01*
X1204Y100397D01*
X1200Y100418D01*
X1359Y101627D01*
X1863Y102843D01*
X2664Y103887D01*
X3708Y104688D01*
X4923Y105191D01*
X5799Y105307D01*
X6088Y105268D01*
X6157Y105239D01*
X6157Y105239D01*
X6299Y105239D01*
X6299Y105239D01*
X6450Y105302D01*
X6668Y105347D01*
X54206D01*
X54278Y104855D01*
X53129Y104379D01*
X52142Y103621D01*
X51385Y102635D01*
X50908Y101485D01*
X50746Y100252D01*
X50908Y99019D01*
X51385Y97869D01*
X52142Y96882D01*
X53129Y96125D01*
X54278Y95649D01*
X55511Y95487D01*
X56745Y95649D01*
X57894Y96125D01*
X58881Y96882D01*
X59638Y97869D01*
X60114Y99019D01*
X60277Y100252D01*
X60114Y101485D01*
X59638Y102635D01*
X58881Y103621D01*
X57894Y104379D01*
X56745Y104855D01*
X56817Y105347D01*
X104253D01*
X104711Y105244D01*
D02*
G37*
%LPC*%
G36*
X34996Y91892D02*
Y90469D01*
X36419D01*
X36365Y90743D01*
X35926Y91399D01*
X35270Y91838D01*
X34996Y91892D01*
D02*
G37*
G36*
X33996D02*
X33721Y91838D01*
X33065Y91399D01*
X32627Y90743D01*
X32572Y90469D01*
X33996D01*
Y91892D01*
D02*
G37*
G36*
X36419Y89468D02*
X34996D01*
Y88045D01*
X35270Y88099D01*
X35926Y88538D01*
X36365Y89194D01*
X36419Y89468D01*
D02*
G37*
G36*
X33996D02*
X32572D01*
X32627Y89194D01*
X33065Y88538D01*
X33721Y88099D01*
X33996Y88045D01*
Y89468D01*
D02*
G37*
G36*
X13976Y89154D02*
X12704D01*
Y85469D01*
X18095D01*
X18019Y86052D01*
X17601Y87061D01*
X16935Y87928D01*
X16069Y88593D01*
X15059Y89011D01*
X13976Y89154D01*
D02*
G37*
G36*
X11704D02*
X10433D01*
X9349Y89011D01*
X8340Y88593D01*
X7473Y87928D01*
X6808Y87061D01*
X6390Y86052D01*
X6313Y85469D01*
X11704D01*
Y89154D01*
D02*
G37*
G36*
X100590D02*
X99318D01*
Y85469D01*
X104710D01*
X104633Y86052D01*
X104215Y87061D01*
X103550Y87928D01*
X102683Y88593D01*
X101673Y89011D01*
X100590Y89154D01*
D02*
G37*
G36*
X98318D02*
X97047D01*
X95964Y89011D01*
X94954Y88593D01*
X94087Y87928D01*
X93422Y87061D01*
X93004Y86052D01*
X92927Y85469D01*
X98318D01*
Y89154D01*
D02*
G37*
G36*
X28925Y84207D02*
Y82784D01*
X30348D01*
X30294Y83058D01*
X29855Y83714D01*
X29199Y84153D01*
X28925Y84207D01*
D02*
G37*
G36*
X27925D02*
X27650Y84153D01*
X26994Y83714D01*
X26556Y83058D01*
X26501Y82784D01*
X27925D01*
Y84207D01*
D02*
G37*
G36*
X104710Y84469D02*
X99318D01*
Y80783D01*
X100590D01*
X101673Y80926D01*
X102683Y81344D01*
X103550Y82009D01*
X104215Y82876D01*
X104633Y83885D01*
X104710Y84469D01*
D02*
G37*
G36*
X98318D02*
X92927D01*
X93004Y83885D01*
X93422Y82876D01*
X94087Y82009D01*
X94954Y81344D01*
X95964Y80926D01*
X97047Y80783D01*
X98318D01*
Y84469D01*
D02*
G37*
G36*
X18095Y84469D02*
X12704D01*
Y80783D01*
X13976D01*
X15059Y80926D01*
X16069Y81344D01*
X16935Y82009D01*
X17601Y82876D01*
X18019Y83885D01*
X18095Y84469D01*
D02*
G37*
G36*
X11704D02*
X6313D01*
X6390Y83885D01*
X6808Y82876D01*
X7473Y82009D01*
X8340Y81344D01*
X9349Y80926D01*
X10433Y80783D01*
X11704D01*
Y84469D01*
D02*
G37*
G36*
X30348Y81783D02*
X28925D01*
Y80360D01*
X29199Y80414D01*
X29855Y80853D01*
X30294Y81509D01*
X30348Y81783D01*
D02*
G37*
G36*
X27925D02*
X26501D01*
X26556Y81509D01*
X26994Y80853D01*
X27650Y80414D01*
X27925Y80360D01*
Y81783D01*
D02*
G37*
G36*
X58728Y83543D02*
X58037Y83405D01*
X57451Y83013D01*
X57059Y82428D01*
X56921Y81736D01*
X56939Y81650D01*
X52542Y77253D01*
X52281Y76862D01*
X52189Y76402D01*
X52189Y76402D01*
Y75760D01*
X51689Y75617D01*
X51379Y76080D01*
X50793Y76472D01*
X50102Y76609D01*
X49411Y76472D01*
X48825Y76080D01*
X48433Y75494D01*
X48296Y74803D01*
X48433Y74112D01*
X48825Y73526D01*
X48898Y73477D01*
Y64578D01*
X48825Y64529D01*
X48433Y63943D01*
X48296Y63252D01*
X48433Y62561D01*
X48825Y61975D01*
X49411Y61583D01*
X50102Y61446D01*
X50793Y61583D01*
X51379Y61975D01*
X51771Y62561D01*
X51908Y63252D01*
X51771Y63943D01*
X51379Y64529D01*
X51306Y64578D01*
Y71295D01*
X51806Y71438D01*
X52116Y70975D01*
X52702Y70583D01*
X53393Y70446D01*
X54084Y70583D01*
X54671Y70975D01*
X55062Y71561D01*
X55200Y72252D01*
X55062Y72943D01*
X54671Y73529D01*
X54598Y73578D01*
Y75903D01*
X58642Y79947D01*
X58728Y79930D01*
X59419Y80067D01*
X60005Y80459D01*
X60397Y81045D01*
X60534Y81736D01*
X60397Y82428D01*
X60005Y83013D01*
X59419Y83405D01*
X58728Y83543D01*
D02*
G37*
G36*
X104527Y78905D02*
X93110D01*
Y71031D01*
X104527D01*
Y78905D01*
D02*
G37*
G36*
X17913D02*
X6496D01*
Y71031D01*
X17913D01*
Y78905D01*
D02*
G37*
G36*
X71712Y68892D02*
Y67469D01*
X73136D01*
X73081Y67743D01*
X72643Y68399D01*
X71986Y68838D01*
X71712Y68892D01*
D02*
G37*
G36*
X70712D02*
X70438Y68838D01*
X69782Y68399D01*
X69343Y67743D01*
X69288Y67469D01*
X70712D01*
Y68892D01*
D02*
G37*
G36*
X24015Y68735D02*
X23324Y68598D01*
X22738Y68206D01*
X22346Y67620D01*
X22209Y66929D01*
X22226Y66843D01*
X21556Y66173D01*
X17467D01*
X17418Y66246D01*
X16833Y66637D01*
X16141Y66775D01*
X15450Y66637D01*
X14864Y66246D01*
X14472Y65660D01*
X14335Y64969D01*
X14472Y64277D01*
X14864Y63691D01*
X15450Y63300D01*
X16141Y63162D01*
X16833Y63300D01*
X17418Y63691D01*
X17467Y63764D01*
X22055D01*
X22055Y63764D01*
X22515Y63856D01*
X22906Y64117D01*
X23929Y65140D01*
X24015Y65123D01*
X24706Y65260D01*
X25293Y65652D01*
X25684Y66238D01*
X25822Y66929D01*
X25684Y67620D01*
X25293Y68206D01*
X24706Y68598D01*
X24015Y68735D01*
D02*
G37*
G36*
X73136Y66469D02*
X71712D01*
Y65045D01*
X71986Y65099D01*
X72643Y65538D01*
X73081Y66194D01*
X73136Y66469D01*
D02*
G37*
G36*
X70712D02*
X69288D01*
X69343Y66194D01*
X69782Y65538D01*
X70438Y65099D01*
X70712Y65045D01*
Y66469D01*
D02*
G37*
G36*
X29681Y61821D02*
Y60398D01*
X31104D01*
X31050Y60672D01*
X30611Y61328D01*
X29955Y61767D01*
X29681Y61821D01*
D02*
G37*
G36*
X28681D02*
X28406Y61767D01*
X27750Y61328D01*
X27312Y60672D01*
X27257Y60398D01*
X28681D01*
Y61821D01*
D02*
G37*
G36*
X31104Y59398D02*
X29681D01*
Y57974D01*
X29955Y58029D01*
X30611Y58467D01*
X31050Y59123D01*
X31104Y59398D01*
D02*
G37*
G36*
X28681D02*
X27257D01*
X27312Y59123D01*
X27750Y58467D01*
X28406Y58029D01*
X28681Y57974D01*
Y59398D01*
D02*
G37*
G36*
X99318Y43821D02*
Y42398D01*
X100742D01*
X100688Y42672D01*
X100249Y43328D01*
X99593Y43767D01*
X99318Y43821D01*
D02*
G37*
G36*
X98318D02*
X98044Y43767D01*
X97388Y43328D01*
X96949Y42672D01*
X96895Y42398D01*
X98318D01*
Y43821D01*
D02*
G37*
G36*
X12704D02*
Y42398D01*
X14128D01*
X14073Y42672D01*
X13635Y43328D01*
X12979Y43767D01*
X12704Y43821D01*
D02*
G37*
G36*
X11704D02*
X11430Y43767D01*
X10774Y43328D01*
X10335Y42672D01*
X10281Y42398D01*
X11704D01*
Y43821D01*
D02*
G37*
G36*
X100742Y41398D02*
X99318D01*
Y39974D01*
X99593Y40029D01*
X100249Y40467D01*
X100688Y41123D01*
X100742Y41398D01*
D02*
G37*
G36*
X98318D02*
X96895D01*
X96949Y41123D01*
X97388Y40467D01*
X98044Y40029D01*
X98318Y39974D01*
Y41398D01*
D02*
G37*
G36*
X14128D02*
X12704D01*
Y39974D01*
X12979Y40029D01*
X13635Y40467D01*
X14073Y41123D01*
X14128Y41398D01*
D02*
G37*
G36*
X11704D02*
X10281D01*
X10335Y41123D01*
X10774Y40467D01*
X11430Y40029D01*
X11704Y39974D01*
Y41398D01*
D02*
G37*
G36*
X72236Y36261D02*
X71002Y36099D01*
X69853Y35623D01*
X68866Y34866D01*
X68109Y33879D01*
X67633Y32729D01*
X67567Y32226D01*
X67062D01*
X66996Y32729D01*
X66520Y33879D01*
X65763Y34866D01*
X64776Y35623D01*
X63626Y36099D01*
X62393Y36261D01*
X61160Y36099D01*
X60011Y35623D01*
X59024Y34866D01*
X58267Y33879D01*
X57790Y32729D01*
X57724Y32226D01*
X57220D01*
X57153Y32729D01*
X56678Y33879D01*
X55920Y34866D01*
X54933Y35623D01*
X53784Y36099D01*
X52551Y36261D01*
X51317Y36099D01*
X50168Y35623D01*
X49181Y34866D01*
X48424Y33879D01*
X47948Y32729D01*
X47785Y31496D01*
X47948Y30263D01*
X48424Y29114D01*
X49181Y28127D01*
X50168Y27369D01*
X51317Y26893D01*
X52551Y26731D01*
X53784Y26893D01*
X54933Y27369D01*
X55920Y28127D01*
X56678Y29114D01*
X57153Y30263D01*
X57220Y30766D01*
X57724D01*
X57790Y30263D01*
X58267Y29114D01*
X59024Y28127D01*
X60011Y27369D01*
X61160Y26893D01*
X62393Y26731D01*
X63626Y26893D01*
X64776Y27369D01*
X65763Y28127D01*
X66520Y29114D01*
X66996Y30263D01*
X67062Y30766D01*
X67567D01*
X67633Y30263D01*
X68109Y29114D01*
X68866Y28127D01*
X69853Y27369D01*
X71002Y26893D01*
X72236Y26731D01*
X73469Y26893D01*
X74618Y27369D01*
X75605Y28127D01*
X76363Y29114D01*
X76839Y30263D01*
X77001Y31496D01*
X76839Y32729D01*
X76363Y33879D01*
X75605Y34866D01*
X74618Y35623D01*
X73469Y36099D01*
X72236Y36261D01*
D02*
G37*
%LPD*%
D25*
X16141Y64969D02*
X22055D01*
X24015Y66929D01*
X53393Y76402D02*
X58728Y81736D01*
X53393Y72252D02*
Y76402D01*
X50102Y63252D02*
Y74803D01*
D26*
X72236Y31496D02*
D03*
X62393D02*
D03*
X52551D02*
D03*
X55511Y100252D02*
D03*
X104727Y5906D02*
D03*
X6300D02*
D03*
D27*
X98818Y84969D02*
D03*
X12204D02*
D03*
D28*
X98818Y74968D02*
D03*
X12204D02*
D03*
D29*
X53393Y72252D02*
D03*
X50102Y74803D02*
D03*
X71212Y66969D02*
D03*
X58728Y81736D02*
D03*
X28425Y82284D02*
D03*
X12204Y41898D02*
D03*
X24015Y66929D02*
D03*
X16141Y64969D02*
D03*
X98818Y41898D02*
D03*
X29181Y59898D02*
D03*
X34496Y89969D02*
D03*
X50102Y63252D02*
D03*
M02*
