M48
;Layer_Color=9474304
;FILE_FORMAT=2:4
INCH,TZ
;TYPE=PLATED
T1F00S00C0.0118
T2F00S00C0.0315
T3F00S00C0.0433
T4F00S00C0.0591
%
T01
X9882Y4190
X5010Y6325
X2918Y5990
X1220Y4190
X1614Y6497
X2402Y6693
X2842Y8228
X3450Y8997
X5010Y7480
X5339Y7225
X5873Y8174
X7121Y6697
T02
X6239Y3150
X7224
X5255
T03
X1220Y7497
Y8497
X9882
Y7497
T04
X10473Y591
X630
X5551Y10025
M30
