G04*
G04 #@! TF.GenerationSoftware,Altium Limited,Altium Designer,19.0.15 (446)*
G04*
G04 Layer_Color=8388736*
%FSLAX25Y25*%
%MOIN*%
G70*
G01*
G75*
%ADD17R,0.03016X0.02504*%
%ADD18R,0.03055X0.04039*%
%ADD19R,0.04039X0.03055*%
G04:AMPARAMS|DCode=20|XSize=64.02mil|YSize=26.61mil|CornerRadius=7.4mil|HoleSize=0mil|Usage=FLASHONLY|Rotation=180.000|XOffset=0mil|YOffset=0mil|HoleType=Round|Shape=RoundedRectangle|*
%AMROUNDEDRECTD20*
21,1,0.06402,0.01181,0,0,180.0*
21,1,0.04921,0.02661,0,0,180.0*
1,1,0.01480,-0.02461,0.00591*
1,1,0.01480,0.02461,0.00591*
1,1,0.01480,0.02461,-0.00591*
1,1,0.01480,-0.02461,-0.00591*
%
%ADD20ROUNDEDRECTD20*%
%ADD21R,0.03449X0.03449*%
%ADD22C,0.08173*%
%ADD23O,0.10142X0.06598*%
%ADD24R,0.10142X0.06598*%
D17*
X72000Y54469D02*
D03*
X62393D02*
D03*
X56573D02*
D03*
X46966D02*
D03*
D18*
X44881Y89969D02*
D03*
X39566D02*
D03*
X29181Y70969D02*
D03*
X34496D02*
D03*
Y64969D02*
D03*
X29181D02*
D03*
D19*
X33496Y76968D02*
D03*
Y82284D02*
D03*
X98818Y46968D02*
D03*
Y52284D02*
D03*
X12204D02*
D03*
Y46968D02*
D03*
D20*
X44881Y66969D02*
D03*
Y71969D02*
D03*
Y76968D02*
D03*
Y81968D02*
D03*
X66141D02*
D03*
Y76968D02*
D03*
Y71969D02*
D03*
Y66969D02*
D03*
D21*
X12204Y59161D02*
D03*
Y65461D02*
D03*
X98818D02*
D03*
Y59161D02*
D03*
D22*
X72236Y31496D02*
D03*
X62393D02*
D03*
X52551D02*
D03*
X55511Y100252D02*
D03*
X104727Y5906D02*
D03*
X6300D02*
D03*
D23*
X98818Y84969D02*
D03*
X12204D02*
D03*
D24*
X98818Y74968D02*
D03*
X12204D02*
D03*
M02*
